<?xml version="1.0" encoding="UTF-8" standalone="no"?>
<!-- Created with Inkscape (http://www.inkscape.org/) -->

<svg
   xmlns:osb="http://www.openswatchbook.org/uri/2009/osb"
   xmlns:dc="http://purl.org/dc/elements/1.1/"
   xmlns:cc="http://creativecommons.org/ns#"
   xmlns:rdf="http://www.w3.org/1999/02/22-rdf-syntax-ns#"
   xmlns:svg="http://www.w3.org/2000/svg"
   xmlns="http://www.w3.org/2000/svg"
   xmlns:xlink="http://www.w3.org/1999/xlink"
   xmlns:sodipodi="http://sodipodi.sourceforge.net/DTD/sodipodi-0.dtd"
   xmlns:inkscape="http://www.inkscape.org/namespaces/inkscape"
   width="31.75mm"
   height="32.279167mm"
   viewBox="0 0 31.75 32.279167"
   version="1.1"
   id="svg8"
   inkscape:version="0.92.3 (2405546, 2018-03-11)"
   sodipodi:docname="dnd_image.svg">
  <defs
     id="defs2">
    <linearGradient
       id="linearGradient9231">
      <stop
         id="stop9227"
         style="stop-color:#7a0000;stop-opacity:0.726"
         offset="0" />
      <stop
         id="stop9229"
         style="stop-color:#a10703;stop-opacity:0.5625"
         offset="1" />
    </linearGradient>
    <linearGradient
       id="linearGradient9215">
      <stop
         id="stop9207"
         style="stop-color:#ffffff;stop-opacity:0.49270073"
         offset="0" />
      <stop
         id="stop9209"
         style="stop-color:#ffffff;stop-opacity:0.23529412"
         offset="0" />
      <stop
         id="stop9211"
         style="stop-color:#ffffff;stop-opacity:0.15686275"
         offset="1" />
      <stop
         id="stop9213"
         style="stop-color:#ffffff;stop-opacity:0.39215687"
         offset="1" />
    </linearGradient>
    <linearGradient
       id="linearGradient9071">
      <stop
         offset="0"
         style="stop-color:#ed5353;stop-opacity:1"
         id="stop9067" />
      <stop
         offset="1"
         style="stop-color:#c6262e;stop-opacity:1"
         id="stop9069" />
    </linearGradient>
    <linearGradient
       id="a">
      <stop
         id="stop4747"
         offset="0"
         stop-color="#FFF" />
      <stop
         id="stop4749"
         offset=".5"
         stop-color="#fafafa" />
      <stop
         id="stop4751"
         offset="1"
         stop-color="#e7ecef" />
    </linearGradient>
    <radialGradient
       r="56"
       gradientTransform="matrix(0.35180873,1.1428223e-7,-1.0611916e-7,0.32667937,-4.4368858,5.1812456)"
       cx="375"
       cy="290.16"
       gradientUnits="userSpaceOnUse"
       xlink:href="#a"
       fy="258.89999"
       id="z" />
    <radialGradient
       r="56"
       gradientTransform="matrix(0.09728185,2.3318293e-8,-2.5664208e-8,0.1070688,99.511412,137.32764)"
       cx="385.53"
       cy="330.64999"
       gradientUnits="userSpaceOnUse"
       xlink:href="#a"
       fy="299.39999"
       id="m" />
    <radialGradient
       r="56"
       gradientTransform="matrix(0.16142334,0,1.1092804e-8,0.18375817,65.762506,111.39123)"
       cx="338.14999"
       cy="326.60001"
       gradientUnits="userSpaceOnUse"
       xlink:href="#a"
       fy="295.35001"
       id="o" />
    <radialGradient
       r="56"
       gradientTransform="matrix(0.20934075,0,0,0.19438774,54.809418,103.09802)"
       cx="375"
       cy="281.98999"
       gradientUnits="userSpaceOnUse"
       xlink:href="#a"
       fy="250.73"
       id="d" />
    <radialGradient
       r="56"
       gradientTransform="matrix(0.1156796,0,0,0.10741672,75.580003,175.14273)"
       cx="375.88"
       cy="281.04999"
       gradientUnits="userSpaceOnUse"
       xlink:href="#a"
       fy="249.78999"
       id="f" />
    <radialGradient
       r="56"
       gradientTransform="matrix(0.07854654,0,0,0.07293604,105.51591,186.7046)"
       cx="375.88"
       cy="281.04999"
       gradientUnits="userSpaceOnUse"
       xlink:href="#a"
       fy="249.78999"
       id="e" />
    <radialGradient
       r="56"
       gradientTransform="matrix(0.05441505,0,0,0.05052824,97.397806,173.81866)"
       cx="375.88"
       cy="281.04999"
       gradientUnits="userSpaceOnUse"
       xlink:href="#a"
       fy="249.78999"
       id="c" />
    <radialGradient
       r="56"
       gradientTransform="matrix(0.1156796,0,0,0.10741672,92.777919,160.85523)"
       cx="375.88"
       cy="281.04999"
       gradientUnits="userSpaceOnUse"
       xlink:href="#a"
       fy="249.78999"
       id="n" />
    <radialGradient
       r="56"
       gradientTransform="matrix(0.19720423,6.4060207e-8,-5.9484447e-8,0.18311812,58.663677,73.118945)"
       cx="375"
       cy="290.16"
       gradientUnits="userSpaceOnUse"
       xlink:href="#a"
       fy="258.89999"
       id="j" />
    <radialGradient
       r="56"
       gradientTransform="matrix(0.19720423,6.4060207e-8,-5.9484447e-8,0.18311812,47.391131,85.006356)"
       cx="375"
       cy="290.16"
       gradientUnits="userSpaceOnUse"
       xlink:href="#a"
       fy="258.89999"
       id="i" />
    <radialGradient
       r="56"
       gradientTransform="matrix(0.1287644,4.1828079e-8,-3.8840341e-8,0.11956689,71.053458,90.593565)"
       cx="375"
       cy="290.16"
       gradientUnits="userSpaceOnUse"
       xlink:href="#a"
       fy="258.89999"
       id="h" />
    <radialGradient
       r="56"
       gradientTransform="matrix(0.1287644,4.1828079e-8,-3.8840341e-8,0.11956689,87.290091,103.99929)"
       cx="375"
       cy="290.16"
       gradientUnits="userSpaceOnUse"
       xlink:href="#a"
       fy="258.89999"
       id="g" />
    <radialGradient
       r="56"
       gradientTransform="matrix(0.05441505,0,0,0.05052824,97.397806,207.68533)"
       cx="375.88"
       cy="281.04999"
       gradientUnits="userSpaceOnUse"
       xlink:href="#a"
       fy="249.78999"
       id="b" />
    <radialGradient
       r="56"
       gradientTransform="matrix(-0.20934075,0,0,0.19438774,207.31707,8.9063567)"
       cx="375"
       cy="281.98999"
       gradientUnits="userSpaceOnUse"
       xlink:href="#a"
       fy="250.73"
       id="x" />
    <radialGradient
       r="56"
       gradientTransform="matrix(-0.05441505,0,0,0.05052824,151.49951,185.46033)"
       cx="375.88"
       cy="281.04999"
       gradientUnits="userSpaceOnUse"
       fy="249.78999"
       id="aa">
      <stop
         id="stop4768"
         offset="0"
         stop-color="#FFF" />
      <stop
         id="stop4770"
         offset=".5"
         stop-color="#fafafa" />
      <stop
         id="stop4772"
         offset="1"
         stop-color="#e7ecef" />
    </radialGradient>
    <radialGradient
       r="56"
       gradientTransform="matrix(0.07854654,0,0,0.07293604,106.57425,203.90252)"
       cx="375.88"
       cy="281.04999"
       gradientUnits="userSpaceOnUse"
       xlink:href="#a"
       fy="249.78999"
       id="y" />
    <radialGradient
       r="56"
       gradientTransform="matrix(0.07854654,0,0,0.07293604,89.111747,217.66085)"
       cx="375.88"
       cy="281.04999"
       gradientUnits="userSpaceOnUse"
       xlink:href="#a"
       fy="249.78999"
       id="w" />
    <radialGradient
       r="56"
       gradientTransform="matrix(-0.05441505,0,0,0.05052824,151.49951,219.85616)"
       cx="375.88"
       cy="281.04999"
       gradientUnits="userSpaceOnUse"
       xlink:href="#a"
       fy="249.78999"
       id="v" />
    <radialGradient
       r="56"
       gradientTransform="matrix(-0.05441505,0,0,0.05052824,151.49951,253.72282)"
       cx="375.88"
       cy="281.04999"
       gradientUnits="userSpaceOnUse"
       xlink:href="#a"
       fy="249.78999"
       id="u" />
    <radialGradient
       r="56"
       gradientTransform="matrix(0.05441505,0,0,0.05052824,105.07072,246.57914)"
       cx="375.88"
       cy="281.04999"
       gradientUnits="userSpaceOnUse"
       xlink:href="#a"
       fy="249.78999"
       id="t" />
    <radialGradient
       r="56"
       gradientTransform="matrix(0.07854654,0,0,0.07293604,106.57425,237.76919)"
       cx="375.88"
       cy="281.04999"
       gradientUnits="userSpaceOnUse"
       xlink:href="#a"
       fy="249.78999"
       id="s" />
    <radialGradient
       r="56"
       gradientTransform="matrix(0.07854654,0,0,0.07293604,88.58258,251.7921)"
       cx="375.88"
       cy="281.04999"
       gradientUnits="userSpaceOnUse"
       xlink:href="#a"
       fy="249.78999"
       id="r" />
    <radialGradient
       r="56"
       gradientTransform="matrix(0.07854654,0,0,0.07293604,105.51591,220.57127)"
       cx="375.88"
       cy="281.04999"
       gradientUnits="userSpaceOnUse"
       xlink:href="#a"
       fy="249.78999"
       id="q" />
    <radialGradient
       r="56"
       gradientTransform="matrix(-0.05441505,0,0,0.05052824,154.40993,259.54366)"
       cx="375.88"
       cy="281.04999"
       gradientUnits="userSpaceOnUse"
       xlink:href="#a"
       fy="249.78999"
       id="p" />
    <radialGradient
       r="56"
       gradientTransform="matrix(0.05441505,0,0,0.05052824,114.59572,277.79991)"
       cx="375.88"
       cy="281.04999"
       gradientUnits="userSpaceOnUse"
       xlink:href="#a"
       fy="249.78999"
       id="l" />
    <radialGradient
       r="56"
       gradientTransform="matrix(0.05441505,0,0,0.05052824,97.926973,292.08741)"
       cx="375.88"
       cy="281.04999"
       gradientUnits="userSpaceOnUse"
       xlink:href="#a"
       fy="249.78999"
       id="k" />
    <linearGradient
       id="linearGradient3403">
      <stop
         offset="0"
         style="stop-color:#ffffff;stop-opacity:1"
         id="stop3405" />
      <stop
         offset="0"
         style="stop-color:#ffffff;stop-opacity:0.23529412"
         id="stop3407" />
      <stop
         offset="1"
         style="stop-color:#ffffff;stop-opacity:0.15686275"
         id="stop3409" />
      <stop
         offset="1"
         style="stop-color:#ffffff;stop-opacity:0.39215687"
         id="stop3411" />
    </linearGradient>
    <linearGradient
       id="linearGradient3600">
      <stop
         id="stop3602"
         style="stop-color:#f4f4f4;stop-opacity:1"
         offset="0" />
      <stop
         id="stop3604"
         style="stop-color:#dbdbdb;stop-opacity:1"
         offset="1" />
    </linearGradient>
    <linearGradient
       id="linearGradient5060">
      <stop
         id="stop5062"
         style="stop-color:#000000;stop-opacity:1"
         offset="0" />
      <stop
         id="stop5064"
         style="stop-color:#000000;stop-opacity:0"
         offset="1" />
    </linearGradient>
    <linearGradient
       id="linearGradient5048">
      <stop
         id="stop5050"
         style="stop-color:#000000;stop-opacity:0"
         offset="0" />
      <stop
         id="stop5056"
         style="stop-color:#000000;stop-opacity:1"
         offset="0.5" />
      <stop
         id="stop5052"
         style="stop-color:#000000;stop-opacity:0"
         offset="1" />
    </linearGradient>
    <linearGradient
       id="linearGradient3104-6">
      <stop
         offset="0"
         style="stop-color:#000000;stop-opacity:0.31782946"
         id="stop3106-3" />
      <stop
         offset="1"
         style="stop-color:#000000;stop-opacity:0.24031007"
         id="stop3108-9" />
    </linearGradient>
    <linearGradient
       xlink:href="#linearGradient3403"
       id="linearGradient3106"
       gradientUnits="userSpaceOnUse"
       gradientTransform="matrix(0.89189189,0,0,1.1351351,2.5945999,-4.7432314)"
       x1="23.99999"
       y1="5.9404659"
       x2="23.99999"
       y2="42.110645" />
    <linearGradient
       xlink:href="#linearGradient3600"
       id="linearGradient3109"
       gradientUnits="userSpaceOnUse"
       gradientTransform="matrix(0.97142632,0,0,0.93431938,0.68576678,-1.3569996)"
       x1="25.132275"
       y1="0.98520643"
       x2="25.132275"
       y2="47.013336" />
    <radialGradient
       xlink:href="#linearGradient5060"
       id="radialGradient3112"
       gradientUnits="userSpaceOnUse"
       gradientTransform="matrix(0.02303995,0,0,0.01470022,26.360882,37.040176)"
       cx="605.71429"
       cy="486.64789"
       fx="605.71429"
       fy="486.64789"
       r="117.14286" />
    <radialGradient
       xlink:href="#linearGradient5060"
       id="radialGradient3115"
       gradientUnits="userSpaceOnUse"
       gradientTransform="matrix(-0.02303994,0,0,0.01470022,21.62311,37.040176)"
       cx="605.71429"
       cy="486.64789"
       fx="605.71429"
       fy="486.64789"
       r="117.14286" />
    <linearGradient
       xlink:href="#linearGradient5048"
       id="linearGradient3118"
       gradientUnits="userSpaceOnUse"
       gradientTransform="matrix(0.06732488,0,0,0.01470022,-0.3411391,37.040146)"
       x1="302.85715"
       y1="366.64789"
       x2="302.85715"
       y2="609.50507" />
    <linearGradient
       xlink:href="#linearGradient3104-6"
       id="linearGradient3170"
       gradientUnits="userSpaceOnUse"
       gradientTransform="matrix(0.80749686,0,0,0.89471714,59.410232,-2.9773433)"
       x1="-51.786404"
       y1="50.786446"
       x2="-51.786404"
       y2="2.9062471" />
    <linearGradient
       id="linearGradient4526"
       osb:paint="solid">
      <stop
         style="stop-color:#ffffff;stop-opacity:1;"
         offset="0"
         id="stop4528" />
    </linearGradient>
    <linearGradient
       x1="-51.786404"
       y1="50.786446"
       x2="-51.786404"
       y2="2.9062471"
       id="linearGradient3033"
       xlink:href="#linearGradient9231"
       gradientUnits="userSpaceOnUse"
       gradientTransform="matrix(1.0843523,0,0,1.1997367,79.550862,-4.1628601)" />
    <linearGradient
       x1="23.99999"
       y1="5.8641062"
       x2="23.99999"
       y2="42.175503"
       id="linearGradient3093"
       xlink:href="#linearGradient9215"
       gradientUnits="userSpaceOnUse"
       gradientTransform="matrix(1.2162162,0,0,1.5405376,2.8108184,-6.9729501)" />
    <linearGradient
       x1="25.132275"
       y1="0.98520643"
       x2="25.132275"
       y2="47.013336"
       id="linearGradient3096"
       xlink:href="#linearGradient9071"
       gradientUnits="userSpaceOnUse"
       gradientTransform="matrix(1.3142827,0,0,1.2602393,0.4572141,-2.1793201)" />
    <radialGradient
       cx="605.71429"
       cy="486.64789"
       r="117.14286"
       fx="605.71429"
       fy="486.64789"
       id="radialGradient3153"
       xlink:href="#linearGradient5060"
       gradientUnits="userSpaceOnUse"
       gradientTransform="matrix(0.03132633,0,0,0.02058823,35.220859,49.45142)" />
    <radialGradient
       cx="605.71429"
       cy="486.64789"
       r="117.14286"
       fx="605.71429"
       fy="486.64789"
       id="radialGradient3156"
       xlink:href="#linearGradient5060"
       gradientUnits="userSpaceOnUse"
       gradientTransform="matrix(-0.03132632,0,0,0.02058823,28.779136,49.45142)" />
    <linearGradient
       x1="302.85715"
       y1="366.64789"
       x2="302.85715"
       y2="609.50507"
       id="linearGradient3842"
       xlink:href="#linearGradient5048"
       gradientUnits="userSpaceOnUse"
       gradientTransform="matrix(0.09153846,0,0,0.02058823,-1.084616,49.45142)" />
    <linearGradient
       gradientTransform="matrix(1.2162161,0,0,1.4324324,2.8108132,-2.3783632)"
       gradientUnits="userSpaceOnUse"
       xlink:href="#linearGradient3731"
       id="linearGradient3142"
       y2="43"
       x2="23.99999"
       y1="4.999989"
       x1="23.99999" />
    <linearGradient
       id="linearGradient3731">
      <stop
         offset="0"
         style="stop-color:#ffffff;stop-opacity:1"
         id="stop3733" />
      <stop
         offset="0.02706478"
         style="stop-color:#ffffff;stop-opacity:0.23529412"
         id="stop3735" />
      <stop
         offset="0.97377032"
         style="stop-color:#ffffff;stop-opacity:0.15686275"
         id="stop3737" />
      <stop
         offset="1"
         style="stop-color:#ffffff;stop-opacity:0.39215687"
         id="stop3739" />
    </linearGradient>
    <radialGradient
       gradientTransform="matrix(2.7199858e-8,3.295755,-3.4611599,-6.0720387e-8,65.046151,-19.38243)"
       gradientUnits="userSpaceOnUse"
       xlink:href="#linearGradient2867-449-88-871-390-598-476-591-434-148-57-177-641-289-620-227-114-444-680-744-8"
       id="radialGradient3145"
       fy="8.4497671"
       fx="7.4956832"
       r="19.99999"
       cy="8.4497671"
       cx="7.4956832" />
    <linearGradient
       id="linearGradient2867-449-88-871-390-598-476-591-434-148-57-177-641-289-620-227-114-444-680-744-8">
      <stop
         offset="0"
         style="stop-color:#5f5f5f;stop-opacity:1"
         id="stop5430-8" />
      <stop
         offset="0.26238"
         style="stop-color:#4f4f4f;stop-opacity:1"
         id="stop5432-3" />
      <stop
         offset="0.704952"
         style="stop-color:#3b3b3b;stop-opacity:1"
         id="stop5434-1" />
      <stop
         offset="1"
         style="stop-color:#2b2b2b;stop-opacity:1"
         id="stop5436-8" />
    </linearGradient>
    <linearGradient
       gradientTransform="matrix(1.4000002,0,0,1.4102564,2.200001,-1.8461739)"
       gradientUnits="userSpaceOnUse"
       xlink:href="#linearGradient3707-319-631-407-324-616-674-812-821-107-178-392-400-6"
       id="linearGradient3147"
       y2="3.8990016"
       x2="24"
       y1="44"
       x1="24" />
    <linearGradient
       id="linearGradient3707-319-631-407-324-616-674-812-821-107-178-392-400-6">
      <stop
         offset="0"
         style="stop-color:#272727;stop-opacity:1"
         id="stop5440-4" />
      <stop
         offset="1"
         style="stop-color:#454545;stop-opacity:1"
         id="stop5442-3" />
    </linearGradient>
    <linearGradient
       gradientTransform="matrix(0.94825278,0,0,0.98894821,2.1559046,-0.3658631)"
       gradientUnits="userSpaceOnUse"
       xlink:href="#linearGradient3319-4"
       id="linearGradient3153"
       y2="60.875908"
       x2="32.255745"
       y1="4.683187"
       x1="32.255745" />
    <linearGradient
       gradientTransform="matrix(1.3999998,0,0,1.2500081,-0.6000138,-0.12503612)"
       gradientUnits="userSpaceOnUse"
       xlink:href="#linearGradient2346"
       id="linearGradient3156"
       y2="3"
       x2="10.654308"
       y1="1"
       x1="10.654308" />
    <linearGradient
       id="linearGradient2346">
      <stop
         offset="0"
         style="stop-color:#eeeeee;stop-opacity:1"
         id="stop2348" />
      <stop
         offset="1"
         style="stop-color:#d9d9da;stop-opacity:1"
         id="stop2350" />
    </linearGradient>
    <linearGradient
       gradientTransform="matrix(1.3999998,0,0,0.12820517,2.2003515,-0.07692425)"
       gradientUnits="userSpaceOnUse"
       xlink:href="#linearGradient3707-319-631-407-324-616-674-812-821-107-178-392-400-6"
       id="linearGradient3158"
       y2="3.8990016"
       x2="24"
       y1="44"
       x1="24" />
    <linearGradient
       gradientTransform="matrix(1.3484995,0,0,2.0418357,1.2847687,-5.5183332)"
       gradientUnits="userSpaceOnUse"
       xlink:href="#linearGradient2346"
       id="linearGradient4219"
       y2="4.882647"
       x2="24.640038"
       y1="3.1234391"
       x1="24.62738" />
    <linearGradient
       gradientTransform="matrix(0.96200905,0,0,0.99187998,2.5349913,-0.2236392)"
       gradientUnits="userSpaceOnUse"
       xlink:href="#linearGradient3319-4"
       id="linearGradient4221"
       y2="0.065301567"
       x2="54.887218"
       y1="0.065301567"
       x1="5.2122574" />
    <radialGradient
       gradientTransform="matrix(2.003784,0,0,1.4,27.98813,-17.4)"
       gradientUnits="userSpaceOnUse"
       xlink:href="#linearGradient3688-166-749"
       id="radialGradient2873-966-168"
       fy="43.5"
       fx="4.9929786"
       r="2.5"
       cy="43.5"
       cx="4.9929786" />
    <linearGradient
       id="linearGradient3688-166-749">
      <stop
         offset="0"
         style="stop-color:#181818;stop-opacity:1"
         id="stop2883" />
      <stop
         offset="1"
         style="stop-color:#181818;stop-opacity:0"
         id="stop2885" />
    </linearGradient>
    <radialGradient
       gradientTransform="matrix(2.003784,0,0,1.4,-20.01187,-104.4)"
       gradientUnits="userSpaceOnUse"
       xlink:href="#linearGradient3688-166-749"
       id="radialGradient2875-742-326"
       fy="43.5"
       fx="4.9929786"
       r="2.5"
       cy="43.5"
       cx="4.9929786" />
    <linearGradient
       gradientUnits="userSpaceOnUse"
       xlink:href="#linearGradient3702-501-757"
       id="linearGradient2877-634-617"
       y2="39.999443"
       x2="25.058096"
       y1="47.027729"
       x1="25.058096" />
    <linearGradient
       id="linearGradient3702-501-757">
      <stop
         offset="0"
         style="stop-color:#181818;stop-opacity:0"
         id="stop2895" />
      <stop
         offset="0.5"
         style="stop-color:#181818;stop-opacity:1"
         id="stop2897" />
      <stop
         offset="1"
         style="stop-color:#181818;stop-opacity:0"
         id="stop2899" />
    </linearGradient>
    <radialGradient
       gradientTransform="matrix(0,2.8185997,-3.358332,0,61.235601,-87.537161)"
       gradientUnits="userSpaceOnUse"
       xlink:href="#linearGradient8967-7"
       id="radialGradient3831"
       fy="8.55651"
       fx="32.5"
       r="23.499998"
       cy="8.55651"
       cx="32.5" />
    <linearGradient
       id="linearGradient8967-7">
      <stop
         offset="0"
         style="stop-color:#ffbc5c;stop-opacity:1"
         id="stop8969-7" />
      <stop
         offset="1"
         style="stop-color:#d17b01;stop-opacity:1"
         id="stop8971-2" />
    </linearGradient>
    <linearGradient
       id="linearGradient3319-4">
      <stop
         offset="0"
         style="stop-color:#bf8a3e;stop-opacity:1"
         id="stop3321-9" />
      <stop
         offset="1"
         style="stop-color:#784700;stop-opacity:1"
         id="stop3323-0" />
    </linearGradient>
    <radialGradient
       r="19.99999"
       fy="8.4497671"
       fx="7.4956832"
       cy="8.4497671"
       cx="7.4956832"
       gradientTransform="matrix(2.7199858e-8,3.295755,-3.4611599,-6.0720387e-8,65.046151,-19.38243)"
       gradientUnits="userSpaceOnUse"
       id="radialGradient3104"
       xlink:href="#linearGradient2867-449-88-871-390-598-476-591-434-148-57-177-641-289-620-227-114-444-680-744-8" />
    <radialGradient
       r="23.499998"
       fy="8.55651"
       fx="32.5"
       cy="8.55651"
       cx="32.5"
       gradientTransform="matrix(0,2.8185997,-3.358332,0,61.235601,-87.537161)"
       gradientUnits="userSpaceOnUse"
       id="radialGradient3109"
       xlink:href="#linearGradient8967-7" />
  </defs>
  <sodipodi:namedview
     id="base"
     pagecolor="#ffffff"
     bordercolor="#666666"
     borderopacity="1.0"
     inkscape:pageopacity="0.0"
     inkscape:pageshadow="2"
     inkscape:zoom="1"
     inkscape:cx="101.58322"
     inkscape:cy="-21.411051"
     inkscape:document-units="mm"
     inkscape:current-layer="g5288"
     showgrid="true"
     fit-margin-top="0"
     fit-margin-left="0"
     fit-margin-right="0"
     fit-margin-bottom="0"
     showguides="true"
     inkscape:guide-bbox="true"
     inkscape:window-width="1600"
     inkscape:window-height="837"
     inkscape:window-x="0"
     inkscape:window-y="30"
     inkscape:window-maximized="1">
    <inkscape:grid
       type="xygrid"
       id="grid5290" />
  </sodipodi:namedview>
  <metadata
     id="metadata5">
    <rdf:RDF>
      <cc:Work
         rdf:about="">
        <dc:format>image/svg+xml</dc:format>
        <dc:type
           rdf:resource="http://purl.org/dc/dcmitype/StillImage" />
        <dc:title></dc:title>
      </cc:Work>
    </rdf:RDF>
  </metadata>
  <g
     inkscape:label="Layer 1"
     inkscape:groupmode="layer"
     id="layer1"
     transform="translate(-111.88102,-148.11189)">
    <path
       style="color:#000000;opacity:0.05;stroke-width:0.99999994"
       d="m 433.91992,583.41406 c -0.0401,0.32996 -0.0625,0.66 -0.0625,1 0,4.52002 3.677,8.22098 8.25,8.29102 0.0692,4.49998 3.78499,8.08984 8.375,8.08984 4.632,0 8.375,-3.6607 8.375,-8.2207 0,-0.32995 -0.0232,-0.64874 -0.0625,-0.96875 -0.517,4.07002 -4.03649,7.18945 -8.3125,7.18945 -4.59001,0 -8.30602,-3.58986 -8.375,-8.08984 -4.23201,-0.0699 -7.69351,-3.23105 -8.1875,-7.29102 z m 107.91016,11.16016 c -0.58999,10.29997 -9.18017,18.4707 -19.66016,18.4707 h -0.28125 c 0,0.0699 0.0312,0.15079 0.0312,0.2207 0,5.26999 -4.29777,9.5293 -9.5918,9.5293 -3.21496,0 -6.0735,-1.57997 -7.8125,-4 -3.31297,2.51002 -7.4555,4 -11.9375,4 -10.55798,0 -19.1595,-8.27016 -19.6875,-18.66015 -0.0151,0.32995 -0.0312,0.66997 -0.0312,1 0,10.85998 8.82075,19.66015 19.71874,19.66015 4.482,0 8.62453,-1.48998 11.9375,-4 1.739,2.42 4.59754,4 7.8125,4 5.29403,0 9.5918,-4.25931 9.5918,-9.5293 0,-0.0699 -0.0293,-0.15078 -0.0293,-0.2207 h 0.2793 c 10.85998,0 19.68946,-8.76985 19.68946,-19.58984 0,-0.3001 -0.018,-0.59086 -0.0293,-0.88086 z m -77.18946,17.13086 c -0.41898,0.89998 -1.385,1.52929 -2.5,1.5293 -0.35602,0 -0.688,-0.0693 -1,-0.18946 -0.44899,0.46999 -1.11975,0.75 -1.84374,0.75 -0.97301,0 -1.7955,-0.54055 -2.1875,-1.31054 -0.15308,0.30008 -0.25,0.64 -0.25,1 0,1.26998 1.08151,2.31054 2.4375,2.31054 0.72399,0 1.39475,-0.28009 1.84374,-0.75 0.31182,0.11981 0.64402,0.18945 1,0.18946 1.50002,0 2.71875,-1.16054 2.71876,-2.56055 0,-0.34999 -0.0861,-0.66877 -0.21876,-0.96875 z m 24.1875,32.70898 c -0.57995,11.41002 -10.04251,20.50032 -21.6875,20.57032 -2.57498,6.87997 -9.24678,11.81054 -17.09374,11.81054 -9.75602,0 -17.72273,-7.58914 -18.21876,-17.11914 -0.0227,0.34999 -0.0293,0.69859 -0.0293,1.0586 0,9.97998 8.174,18.06054 18.25,18.06054 7.84698,0 14.51681,-4.93057 17.09179,-11.81054 12.02,-0.0699 21.71876,-9.76943 21.71876,-21.68946 0,-0.28989 -0.018,-0.59085 -0.0293,-0.88086 z m 8.09376,10.41016 c -0.0302,0.32995 -0.0625,0.66997 -0.0625,1 0,6.25999 5.11126,11.35156 11.40624,11.35156 h 0.15626 v 0.0898 c 0,3.05001 2.49352,5.5293 5.5625,5.5293 1.86401,0 3.52314,-0.91058 4.53515,-2.31054 1.92,1.44996 4.30042,2.31054 6.90039,2.31054 6.32001,0 11.43946,-5.10087 11.43946,-11.38086 0,-0.28006 -0.0405,-0.55985 -0.0606,-0.83984 -0.58999,5.72999 -5.4489,10.2207 -11.37891,10.2207 -2.59997,0 -4.98039,-0.86054 -6.90039,-2.31054 -1.01201,1.4 -2.67114,2.31054 -4.53515,2.31054 -3.06898,0 -5.5625,-2.47929 -5.5625,-5.5293 v -0.0898 h -0.15626 c -5.95497,0 -10.83076,-4.56155 -11.34374,-10.35156 z"
       transform="scale(0.26458333)"
       id="path4924"
       inkscape:connector-curvature="0" />
    <path
       style="color:#000000;opacity:0.25;stroke-width:0.99999994"
       d="m 512.45117,559.79297 c -5.57102,0 -10.613,2.27141 -14.25,5.94141 -1.67799,-0.59003 -3.46876,-0.94141 -5.34375,-0.94141 -8.88899,0 -16.09375,7.20054 -16.09375,16.06055 0,3.13999 0.99952,6.03 2.5625,8.5 -4.53097,3.78999 -7.46875,9.40001 -7.46875,15.75 0,11.41001 9.27774,20.68945 20.71875,20.68945 4.38002,0 8.42923,-1.36947 11.78125,-3.68945 1.94601,2.24001 4.77577,3.68945 7.96875,3.68945 5.581,0 10.04138,-4.36985 10.44141,-9.83985 11.11997,-0.32011 20.08984,-9.34 20.08984,-20.5 0,-7.67999 -4.27122,-14.33888 -10.53125,-17.8789 -1.08998,-10.00997 -9.559,-17.78125 -19.875,-17.78125 z m 0,1 c 9.96597,0 18.15681,7.6218 18.9668,17.3418 6.20001,3.30001 10.43945,9.81838 10.43945,17.31835 0,10.82004 -8.82947,19.58985 -19.68945,19.58985 h -0.28125 c 0,0.0699 0.0312,0.15078 0.0312,0.2207 0,5.26999 -4.29778,9.5293 -9.5918,9.5293 -3.21498,0 -6.0735,-1.58001 -7.8125,-4 -3.31298,2.50998 -7.45551,4 -11.9375,4 -10.898,0 -19.71875,-8.80014 -19.71875,-19.66016 0,-6.34 3.01449,-11.95859 7.6875,-15.55859 -1.754,-2.45998 -2.78125,-5.43948 -2.78125,-8.68945 0,-8.31001 6.74674,-15.0918 15.09375,-15.0918 1.97802,0 3.86175,0.40983 5.59375,1.08984 3.47702,-3.75001 8.46999,-6.08984 14,-6.08984 z m -62.0625,11.9707 c -2.485,0 -4.70199,0.99984 -6.375,2.58985 -0.58401,-0.10999 -1.16726,-0.21875 -1.78125,-0.21875 -5.184,0 -9.40625,4.15932 -9.40625,9.27929 0,4.79002 3.7335,8.58964 8.4375,9.09961 0.50801,4.66001 4.37574,8.31055 9.21875,8.31055 5.184,0 9.40625,-4.15126 9.40625,-9.28125 0,-2.11 -0.79301,-3.9986 -2,-5.55859 1.04198,-1.47999 1.75,-3.22013 1.75,-5.16016 0,-5.02999 -4.175,-9.06055 -9.25,-9.06055 z m 0,1.0293 c 4.52901,0 8.21875,3.60055 8.21875,8.06055 0,1.95001 -0.73622,3.76014 -1.90625,5.16015 0.004,0 -0.004,0.0199 0,0.0312 1.34502,1.46 2.15625,3.39931 2.15625,5.5293 0,4.56 -3.743,8.2207 -8.375,8.2207 -4.59001,0 -8.30602,-3.59178 -8.375,-8.0918 -4.573,-0.0699 -8.25,-3.76904 -8.25,-8.28906 0,-4.54998 3.743,-8.21094 8.375,-8.21094 0.71698,0 1.39753,0.0803 2.0625,0.25 1.50002,-1.62998 3.68374,-2.66015 6.09375,-2.66015 z m 9.71875,34 c -1.78,0 -3.34375,1.37014 -3.34375,3.16015 0,0.10016 0.0515,0.23182 0.0625,0.3418 -0.56901,0.59002 -0.96875,1.32946 -0.96875,2.18946 0,1.84001 1.56853,3.31054 3.4375,3.31054 0.79102,0 1.47652,-0.32015 2.0625,-0.75 0.2589,0.0601 0.49726,0.1582 0.78125,0.1582 2.01404,0 3.71875,-1.57836 3.71875,-3.56835 0,-1.79003 -1.42522,-3.16167 -3.15625,-3.43165 -0.60899,-0.81001 -1.50275,-1.41015 -2.59375,-1.41015 z m 0,1 c 0.96499,0 1.76598,0.53056 2.125,1.31055 1.44699,0.0601 2.625,1.19029 2.625,2.57031 0,1.40001 -1.21873,2.56054 -2.71875,2.56055 -0.35603,0 -0.688,-0.0712 -1,-0.19141 -0.44901,0.47002 -1.11974,0.75 -1.84375,0.75 -1.35598,0 -2.4375,-1.03861 -2.4375,-2.30859 0,-0.77001 0.385,-1.43155 1,-1.85157 -0.068,-0.19993 -0.0937,-0.42844 -0.0937,-0.64843 0,-1.22 1.04972,-2.19141 2.34375,-2.19141 z m -18.125,9 c -10.54998,0 -19.125,8.47143 -19.125,18.94141 0,7.02 3.92286,13.06983 9.65625,16.33984 -1.04799,2.33998 -1.71875,4.88891 -1.71875,7.6289 0,10.53 8.63301,19.08985 19.25,19.08985 8.02201,0 14.80051,-4.9389 17.6875,-11.87891 12.27802,-0.37999 22.125,-10.3611 22.125,-22.62109 0,-12.51001 -10.22674,-22.6582 -22.84375,-22.6582 -3.63602,0 -7.03774,0.93947 -10.09375,2.43945 -3.49999,-4.39998 -8.84747,-7.28125 -14.9375,-7.28125 z m 0,1 c 6.044,0 11.36323,2.93141 14.65625,7.44141 3.08398,-1.65 6.62601,-2.56055 10.375,-2.56055 12.07801,0 21.84375,9.65913 21.84375,21.61914 0,11.91999 -9.69875,21.62141 -21.71875,21.69141 -2.57499,6.87997 -9.24677,11.80859 -17.09375,11.80859 -10.07599,0 -18.25,-8.07857 -18.25,-18.05859 0,-2.88 0.73051,-5.59004 1.9375,-8 -5.85502,-2.98001 -9.875,-9.01071 -9.875,-15.97071 0,-9.91997 8.11402,-17.9707 18.125,-17.9707 z m 71.90625,16 c -6.09698,0 -11.0355,4.54014 -11.8125,10.41015 -3.68799,2.13 -6.21875,6.07111 -6.21875,10.6211 0,6.56999 5.20576,11.89 11.71875,12.25 0.42202,3.19997 3.08325,5.71875 6.40625,5.71875 1.86301,0 3.45528,-0.87915 4.6543,-2.11914 1.97,1.28999 4.25127,2.11914 6.78125,2.11914 6.85999,0 12.43945,-5.54889 12.43945,-12.37891 0,-3.68001 -1.66998,-6.95093 -4.25,-9.21094 0.84,-1.43001 1.41016,-3.03835 1.41016,-4.81835 0,-5.35 -4.37003,-9.71094 -9.75,-9.71094 -1.07002,0 -2.07125,0.24053 -3.03125,0.56055 -2.18,-2.10002 -5.09564,-3.44141 -8.34766,-3.44141 z m 0,1 c 3.20602,0 6.1089,1.36123 8.12891,3.53125 0.99999,-0.40003 2.09996,-0.62109 3.25,-0.6211 4.83999,0 8.75,3.91094 8.75,8.71094 0,1.88002 -0.61088,3.58 -1.63086,5 2.71,2.07999 4.4707,5.34002 4.4707,9 0,6.27999 -5.11944,11.37891 -11.43945,11.37891 -2.59998,0 -4.98039,-0.85859 -6.90039,-2.30859 -1.01201,1.4 -2.67113,2.30859 -4.53516,2.30859 -3.06897,0 -5.5625,-2.47929 -5.5625,-5.5293 v -0.0898 h -0.15625 c -6.29499,-0.0113 -11.40625,-5.08962 -11.40625,-11.34961 0,-4.33002 2.46847,-8.09002 6.0625,-10 0.47301,-5.62001 5.18876,-10.03125 10.96875,-10.03125 z"
       transform="scale(0.26458333)"
       id="path4920"
       inkscape:connector-curvature="0" />
    <path
       style="color:#000000;opacity:0.05;stroke-width:0.99999994"
       d="m 512.45117,561.79297 c -5.57401,0 -10.615,2.30071 -14.25,5.9707 -1.671,-0.58998 -3.45977,-0.9707 -5.34375,-0.9707 -8.89001,0 -16.09375,7.23179 -16.09375,16.0918 0,3.13999 1.00152,5.99875 2.5625,8.46875 -4.54,3.78999 -7.46875,9.42125 -7.46875,15.78125 0,11.40997 9.28077,20.6582 20.71875,20.6582 4.379,0 8.43025,-1.36947 11.78125,-3.68945 1.94498,2.23997 4.77675,3.68945 7.96875,3.68945 5.57103,0 10.04138,-4.34863 10.44141,-9.80859 11.11997,-0.32013 20.08984,-9.37126 20.08984,-20.53126 0,-7.67998 -4.27122,-14.33888 -10.53125,-17.8789 -1.08998,-10.01 -9.559,-17.78125 -19.875,-17.78125 z m -62.0625,13 c -2.476,0 -4.68374,1.05111 -6.34375,2.62109 -0.59202,-0.10998 -1.18952,-0.21093 -1.8125,-0.21094 -5.16,0 -9.375,4.11096 -9.375,9.21094 0,4.78001 3.7315,8.6096 8.4375,9.09961 0.50502,4.64001 4.36649,8.2793 9.1875,8.2793 5.16,0 9.375,-4.10875 9.375,-9.21875 0,-2.11 -0.79199,-4.00055 -2,-5.56055 1.04402,-1.47001 1.75,-3.22016 1.75,-5.16015 0,-5.00999 -4.15773,-9.06055 -9.21875,-9.06055 z m 9.71875,35 c -1.79701,0 -3.34375,1.40142 -3.34375,3.19141 0,0.10013 0.0515,0.22948 0.0625,0.33984 -0.552,0.58001 -0.96875,1.31014 -0.96875,2.16016 0,1.83996 1.56751,3.31054 3.4375,3.31054 0.76101,0 1.43726,-0.3008 2.03125,-0.7207 0.26797,0.0601 0.51653,0.16016 0.8125,0.16016 2.016,0 3.71875,-1.58057 3.71875,-3.56055 0,-1.8 -1.41022,-3.2007 -3.15625,-3.47071 -0.60998,-0.80997 -1.50177,-1.41015 -2.59375,-1.41015 z m -18.125,10 c -10.549,0 -19.125,8.51071 -19.125,18.9707 0,7.01998 3.92445,13.06984 9.65625,16.33985 -1.04799,2.34001 -1.71875,4.89085 -1.71875,7.63086 0,10.51999 8.638,19.05859 19.25,19.05859 8.02099,0 14.80153,-4.9389 17.6875,-11.87891 12.275,-0.37999 22.125,-10.36106 22.125,-22.62109 0,-12.50997 -10.23075,-22.61914 -22.84375,-22.61914 -3.62899,0 -7.03573,0.91039 -10.09375,2.40039 -3.49897,-4.40001 -8.84947,-7.28125 -14.9375,-7.28125 z m 71.90625,17 c -6.10397,0 -11.04949,4.5614 -11.8125,10.44141 -3.685,2.12997 -6.21875,6.04983 -6.21875,10.58984 0,6.56999 5.20678,11.9193 11.71875,12.2793 0.43601,3.18999 3.09728,5.68945 6.40625,5.68945 1.861,0 3.4563,-0.87912 4.6543,-2.11914 1.97,1.29003 4.25127,2.11914 6.78125,2.11914 6.85999,0 12.43945,-5.54892 12.43945,-12.37891 0,-3.68999 -1.66998,-6.95097 -4.25,-9.21094 0.82999,-1.41998 1.41016,-3.01907 1.41016,-4.78906 0,-5.34999 -4.37003,-9.71093 -9.75,-9.71094 -1.07002,0 -2.07125,0.24058 -3.03125,0.56055 -2.18,-2.09998 -5.09065,-3.4707 -8.34766,-3.4707 z"
       transform="scale(0.26458333)"
       id="path4788"
       inkscape:connector-curvature="0" />
    <path
       style="color:#000000;opacity:0.15;stroke-width:0.99999994"
       d="m 512.45117,562.79297 c -5.53001,0 -10.52298,2.34179 -14,6.0918 -1.732,-0.68002 -3.61573,-1.0918 -5.59375,-1.0918 -8.34701,0 -15.09375,6.78179 -15.09375,15.0918 0,3.25001 1.02725,6.22947 2.78125,8.68945 -4.67301,3.6 -7.6875,9.22054 -7.6875,15.56055 0,10.85998 8.82075,19.6582 19.71875,19.6582 4.48199,0 8.62452,-1.48998 11.9375,-4 1.739,2.41999 4.59752,4 7.8125,4 5.29402,0 9.5918,-4.25931 9.5918,-9.5293 0,-0.0699 -0.0312,-0.15078 -0.0312,-0.2207 h 0.2793 c 10.85998,0 19.6914,-8.76985 19.6914,-19.58985 0,-7.49997 -4.24139,-14.01837 -10.4414,-17.31835 -0.80999,-9.72 -8.99888,-17.3418 -18.96485,-17.3418 z m -62.0625,13 c -2.41001,0 -4.59373,1.03017 -6.09375,2.66015 -0.66497,-0.17006 -1.34552,-0.25 -2.0625,-0.25 -4.632,0 -8.375,3.66096 -8.375,8.21094 0,4.52002 3.677,8.21908 8.25,8.28906 0.0692,4.49999 3.78499,8.08985 8.375,8.08985 4.632,0 8.375,-3.65875 8.375,-8.21875 0,-2.12999 -0.81123,-4.07126 -2.15625,-5.53125 -0.004,-0.0113 0.004,-0.0293 0,-0.0293 1.17003,-1.40001 1.90625,-3.21014 1.90625,-5.16015 0,-4.46 -3.68974,-8.06055 -8.21875,-8.06055 z m -8.40625,45 c -10.01098,0 -18.125,8.05069 -18.125,17.9707 0,6.96 4.01998,12.99074 9.875,15.97071 -1.20699,2.41 -1.9375,5.11999 -1.9375,8 0,9.97998 8.17401,18.05859 18.25,18.05859 7.84698,0 14.51876,-4.92862 17.09375,-11.80859 12.02,-0.0699 21.71875,-9.77139 21.71875,-21.69141 0,-11.95998 -9.76574,-21.61914 -21.84375,-21.61914 -3.74899,0 -7.29102,0.91052 -10.375,2.56055 -3.29302,-4.51 -8.61225,-7.44141 -14.65625,-7.44141 z m 71.90625,17 c -5.77999,0 -10.49574,4.41128 -10.96875,10.03125 -3.59403,1.91002 -6.0625,5.66998 -6.0625,10 0,6.25999 5.11126,11.34961 11.40625,11.34961 h 0.15625 v 0.0898 c 0,3.05001 2.49353,5.5293 5.5625,5.5293 1.86403,0 3.52315,-0.90859 4.53516,-2.30859 1.92,1.44996 4.30041,2.30859 6.90039,2.30859 6.32001,0 11.43945,-5.09892 11.43945,-11.37891 0,-3.66002 -1.7607,-6.92001 -4.4707,-9 1.01998,-1.42 1.63086,-3.11998 1.63086,-5 0,-4.8 -3.91001,-8.71092 -8.75,-8.71094 -1.15004,0 -2.25001,0.22107 -3.25,0.6211 -2.02001,-2.16998 -4.92289,-3.53125 -8.12891,-3.53125 z"
       transform="scale(0.26458333)"
       id="path4790"
       inkscape:connector-curvature="0" />
    <path
       style="color:#000000;fill:#ffffff;stroke-width:0.99999994"
       d="m 512.44922,560.79297 c -5.52924,5.5e-4 -10.52145,2.34028 -13.99805,6.08984 -1.732,-0.68001 -3.61573,-1.08984 -5.59375,-1.08984 -8.34701,0 -15.09375,6.78179 -15.09375,15.0918 0,0.28989 0.0142,0.5889 0.0293,0.8789 0.57997,-7.79002 7.09851,-13.9707 15.0625,-13.9707 1.97801,0 3.86174,0.41178 5.59375,1.0918 3.47701,-3.75001 8.46998,-6.0918 14,-6.0918 9.96597,0 18.15681,7.61984 18.9668,17.33984 5.93,3.15001 10.05015,9.24032 10.41015,16.32031 0.0189,-0.34014 0.0293,-0.66997 0.0293,-1 0,-7.49997 -4.23944,-14.02029 -10.43945,-17.32031 -0.80994,-9.71936 -8.99977,-17.33884 -18.96485,-17.33984 z m -62.06055,13 c -2.41001,0 -4.59373,1.03017 -6.09375,2.66015 -0.66497,-0.17006 -1.34552,-0.25 -2.0625,-0.25 -4.632,0 -8.375,3.66096 -8.375,8.21094 0,0.34016 0.0232,0.67999 0.0625,1 0.50298,-4.08 4.0255,-7.21093 8.3125,-7.21094 0.71698,0 1.39753,0.0819 2.0625,0.25196 1.50002,-1.63 3.68374,-2.66016 6.09375,-2.66016 4.16999,0 7.63324,3.0693 8.15625,7.0293 0.0401,-0.32013 0.0625,-0.64071 0.0625,-0.9707 0,-4.46 -3.68974,-8.0586 -8.21875,-8.0586 z m 7.03125,14.19141 c -0.21921,0.3598 -0.44972,0.70928 -0.71875,1.02929 0.004,0 -0.004,0.0199 0,0.0312 1.13601,1.23999 1.88675,2.81858 2.09375,4.5586 0.0419,-0.34016 0.0625,-0.67928 0.0625,-1.0293 0,-1.69999 -0.5385,-3.27987 -1.4375,-4.58984 z m 22.28125,2.27929 c -4.18201,3.6 -6.84375,8.93111 -6.84375,14.8711 0,0.28006 0.018,0.53838 0.0293,0.81835 0.34885,-5.85999 3.2772,-11.00889 7.6582,-14.3789 -0.30312,-0.41998 -0.58674,-0.86056 -0.84375,-1.31055 z m -19.59375,18.5293 c -1.29403,0 -2.34375,0.97141 -2.34375,2.19141 0,0.21995 0.0261,0.45041 0.0937,0.65039 -0.615,0.42001 -1,1.0796 -1,1.84961 0,0.17989 0.0194,0.3591 0.0625,0.52929 0.0438,0.17008 0.11078,0.32081 0.1875,0.47071 0.17386,-0.34016 0.423,-0.61963 0.75,-0.84961 -0.068,-0.19994 -0.0937,-0.4304 -0.0937,-0.65039 0,-1.22 1.04972,-2.19141 2.34375,-2.19141 0.96499,0 1.76598,0.53053 2.125,1.31055 1.07498,0.0401 2.00128,0.6803 2.40625,1.57031 0.13795,-0.30992 0.21875,-0.65002 0.21875,-1 0,-1.38002 -1.17801,-2.5103 -2.625,-2.57031 -0.35905,-0.77999 -1.16001,-1.31055 -2.125,-1.31055 z m -18.12695,10 c -10.01008,10e-4 -18.12305,8.05138 -18.12305,17.9707 0,0.43 -5.2e-4,0.8493 0.0293,1.2793 0.38211,-9.58001 8.32654,-17.25 18.09375,-17.25 6.04399,0 11.36326,2.93141 14.65625,7.44141 3.08398,-1.65003 6.62601,-2.56055 10.375,-2.56055 11.701,0 21.23044,9.04999 21.81445,20.5 0.0113,-0.28989 0.0293,-0.59086 0.0293,-0.88086 0,-11.96001 -9.76574,-21.61914 -21.84375,-21.61914 -3.74899,0 -7.29102,0.91055 -10.375,2.56055 -3.29263,-4.50951 -8.61112,-7.44078 -14.6543,-7.44141 z m 71.9082,17 c -5.77999,0 -10.49574,4.41124 -10.96875,10.03125 -3.59403,1.90998 -6.0625,5.66998 -6.0625,10 0,0.34016 0.0345,0.67001 0.0625,1 0.34583,-3.91 2.68498,-7.23999 6,-9 0.47301,-5.61997 5.18876,-10.03125 10.96875,-10.03125 3.20602,0 6.1089,1.36127 8.12891,3.53125 0.99999,-0.39999 2.09996,-0.62109 3.25,-0.6211 4.46997,0 8.14968,3.35039 8.67969,7.6504 0.0401,-0.30993 0.0703,-0.61944 0.0703,-0.93946 0,-4.8 -3.91001,-8.71093 -8.75,-8.71094 -1.15004,0 -2.25001,0.22104 -3.25,0.6211 -2.02001,-2.17002 -4.92289,-3.53125 -8.12891,-3.53125 z m 19.2793,17.31055 c -0.21997,0.46 -0.48127,0.90054 -0.78125,1.31054 2.48999,1.90999 4.15016,4.82893 4.41016,8.12891 0.0302,-0.37002 0.0605,-0.7389 0.0605,-1.12891 0,-3.29 -1.42944,-6.23052 -3.68945,-8.31054 z m -100.15039,1.2207 c -0.77798,1.99 -1.21875,4.15019 -1.21875,6.41016 0,0.26984 0.0199,0.53858 0.0312,0.80859 0.17083,-2.43001 0.86824,-4.7386 1.90625,-6.80859 -0.24743,-0.12975 -0.4773,-0.27034 -0.71875,-0.41016 z"
       transform="scale(0.26458333)"
       id="path4926"
       inkscape:connector-curvature="0" />
    <path
       inkscape:connector-curvature="0"
       style="color:#000000;fill:url(#d);stroke-width:0.26458332"
       d="m 135.58762,148.37612 c 2.63795,0 4.8006,2.01949 5.0165,4.5929 1.64044,0.87228 2.76304,2.59519 2.76304,4.57756 0,2.86332 -2.33196,5.18213 -5.20515,5.18213 -0.0259,0 -0.0507,2.4e-4 -0.0765,0 2.5e-4,0.0188 0.005,0.037 0.005,0.0559 0,1.396 -1.13803,2.52503 -2.53884,2.52503 -0.85061,0 -1.60459,-0.4164 -2.06473,-1.05675 -0.87656,0.66387 -1.96979,1.05675 -3.15568,1.05675 -2.88343,0 -5.22049,-2.32897 -5.22049,-5.2025 0,-1.67717 0.79774,-3.16363 2.03414,-4.11533 -0.46387,-0.65077 -0.73922,-1.44246 -0.73922,-2.30148 0,-2.20097 1.78832,-3.98833 3.9968,-3.98833 0.52329,0 1.02547,0.10238 1.48354,0.28451 0.92006,-0.99304 2.238,-1.61052 3.70126,-1.61052 z"
       id="path4796" />
    <path
       inkscape:connector-curvature="0"
       style="color:#000000;fill:url(#o);stroke-width:0.26458332"
       d="m 116.94243,163.72195 c -2.64874,0 -4.79663,2.12701 -4.79663,4.75007 0,1.84309 1.06029,3.43773 2.60951,4.22513 -0.31933,0.63854 -0.50533,1.35583 -0.50533,2.11667 0,2.64011 2.15553,4.78313 4.8215,4.78313 2.07627,0 3.84175,-1.30426 4.52305,-3.12578 3.18029,-0.0177 5.74913,-2.58094 5.74913,-5.73458 0,-3.16468 -2.58672,-5.72638 -5.78246,-5.72638 -0.99198,0 -1.92609,0.24533 -2.74215,0.68093 -0.8714,-1.1915 -2.27787,-1.969 -3.87694,-1.969 z"
       id="path4798" />
    <path
       inkscape:connector-curvature="0"
       style="color:#000000;fill:url(#m);stroke-width:0.26458332"
       d="m 135.97126,168.21987 c -1.52926,0 -2.78288,1.16753 -2.90803,2.65509 -0.9525,0.50271 -1.60338,1.50019 -1.60338,2.64584 0,1.65534 1.35187,2.99587 3.01758,2.99587 0.015,0 0.0294,1.5e-4 0.0443,0 -1.5e-4,0.0109 -0.003,0.0214 -0.003,0.0323 0,0.80706 0.65974,1.45976 1.47179,1.45976 0.49311,0 0.9302,-0.24073 1.19695,-0.61092 0.50816,0.38381 1.14192,0.61092 1.82941,0.61092 1.67156,0 3.02631,-1.34643 3.02631,-3.00778 0,-0.96962 -0.46247,-1.82904 -1.17923,-2.37911 0.26893,-0.37621 0.42855,-0.83391 0.42855,-1.33053 0,-1.27244 -1.03672,-2.30569 -2.31704,-2.30569 -0.30334,0 -0.59446,0.0592 -0.86002,0.16448 -0.53338,-0.57409 -1.29739,-0.93109 -2.14564,-0.93109 z"
       id="path4800" />
    <g
       id="g4810"
       transform="matrix(0.26458333,0,0,0.26458333,28.27262,90.601701)">
      <path
         inkscape:connector-curvature="0"
         style="color:#000000;opacity:0.05"
         d="m 351.69,238.39 c -0.19916,1.5762 -0.87097,3.0273 -1.8438,4.1875 0.005,0.006 -0.005,0.0252 0,0.0312 0.26741,0.29115 0.49571,0.61116 0.71875,0.9375 0.735,-1.2103 1.1875,-2.6232 1.1875,-4.125 0,-0.35351 -0.0175,-0.68985 -0.0625,-1.0312 z"
         id="path4802" />
      <path
         inkscape:connector-curvature="0"
         style="color:#000000;opacity:0.05"
         d="m 370.94,237.33 c -0.0279,0.37477 -0.0312,0.74323 -0.0312,1.125 0,2.6873 0.70063,5.1967 1.9375,7.375 0.27877,-0.2403 0.55169,-0.46274 0.84375,-0.6875 -1.596,-2.239 -2.5844,-4.9022 -2.75,-7.8125 z"
         id="path4804" />
      <path
         inkscape:connector-curvature="0"
         style="color:#000000;opacity:0.05"
         d="m 317.03,293.64 c -0.009,0.22889 -0.0312,0.45651 -0.0312,0.6875 0,6.6707 3.7019,12.469 9.1562,15.562 0.21244,-0.54339 0.46003,-1.0764 0.71875,-1.5938 -5.4806,-2.7855 -9.3705,-8.2567 -9.8438,-14.656 z"
         id="path4806" />
      <path
         inkscape:connector-curvature="0"
         style="color:#000000;opacity:0.05"
         d="m 427.09,303.92 c -0.16723,1.505 -0.71931,2.8828 -1.5625,4.0625 0.2743,0.21051 0.52725,0.45364 0.78125,0.6875 0.5419,-1.1185 0.84375,-2.3546 0.84375,-3.6875 0,-0.36485 -0.0188,-0.70932 -0.0625,-1.0625 z"
         id="path4808" />
    </g>
    <path
       inkscape:connector-curvature="0"
       style="color:#000000;opacity:0.15;stroke-width:0.26458332"
       d="m 121.73668,161.60529 c 0.25535,0 0.46731,0.14054 0.56224,0.34726 0.38283,0.0149 0.69453,0.31549 0.69453,0.678 0,0.37205 -0.32242,0.67799 -0.71935,0.67799 -0.0943,0 -0.18209,-0.0187 -0.26458,-0.0496 -0.11888,0.12377 -0.29617,0.19844 -0.48784,0.19844 -0.35867,0 -0.64492,-0.27564 -0.64492,-0.61185 0,-0.20275 0.10198,-0.37719 0.26458,-0.48784 -0.0181,-0.0546 -0.0248,-0.11347 -0.0248,-0.17363 0,-0.32086 0.27781,-0.57878 0.62013,-0.57878 z"
       id="path4840" />
    <path
       style="color:#000000;fill:#fafafb;stroke-width:0.99999994"
       d="m 450.38867,573.79297 c -2.41001,0 -4.59373,1.03017 -6.09375,2.66015 -0.66497,-0.17006 -1.34552,-0.25 -2.0625,-0.25 -4.632,0 -8.375,3.66096 -8.375,8.21094 0,4.52002 3.677,8.21908 8.25,8.28906 0.0692,4.50002 3.78499,8.0918 8.375,8.0918 4.632,0 8.375,-3.6607 8.375,-8.2207 0,-2.12999 -0.81123,-4.0693 -2.15625,-5.5293 -0.004,-0.0113 0.004,-0.0312 0,-0.0312 1.17003,-1.40001 1.90625,-3.21014 1.90625,-5.16015 0,-4.46 -3.68974,-8.06055 -8.21875,-8.06055 z m 9.71875,35 c -1.29403,0 -2.34375,0.97141 -2.34375,2.19141 0,0.21995 0.0261,0.45041 0.0937,0.65039 -0.615,0.42001 -1,1.0796 -1,1.84961 0,1.26998 1.08152,2.30859 2.4375,2.30859 0.72401,0 1.39474,-0.28005 1.84375,-0.75 0.31219,0.11981 0.64401,0.19141 1,0.19141 1.50002,0 2.71875,-1.16054 2.71875,-2.56055 0,-1.38002 -1.17801,-2.5103 -2.625,-2.57031 -0.35905,-0.77999 -1.16001,-1.31055 -2.125,-1.31055 z"
       id="path4922"
       inkscape:connector-curvature="0"
       transform="scale(0.26458333)" />
    <g
       id="g5288"
       transform="matrix(0.26458333,0,0,0.26458333,119.28935,156.0494)">
      <rect
         style="display:inline;overflow:visible;visibility:visible;opacity:0.15;fill:url(#linearGradient3842);fill-opacity:1;fill-rule:nonzero;stroke:none;stroke-width:1;marker:none"
         id="rect2879-2"
         y="57.000004"
         x="9.8999996"
         height="5"
         width="44.199997" />
      <path
         style="display:inline;overflow:visible;visibility:visible;opacity:0.15;fill:url(#radialGradient3156);fill-opacity:1;fill-rule:nonzero;stroke:none;stroke-width:1;marker:none"
         id="path2881-9"
         d="m 9.9,57.00022 c 0,0 0,4.9997 0,4.9997 -1.6132281,0.01 -3.9,-1.1202 -3.9,-2.5002 0,-1.38 1.8002408,-2.4995 3.9,-2.4995 z"
         inkscape:connector-curvature="0" />
      <path
         style="display:inline;overflow:visible;visibility:visible;opacity:0.15;fill:url(#radialGradient3153);fill-opacity:1;fill-rule:nonzero;stroke:none;stroke-width:1;marker:none"
         id="path2883-1"
         d="m 54.099999,57.00022 c 0,0 0,4.9997 0,4.9997 C 55.713227,62.00992 58,60.87972 58,59.49972 c 0,-1.38 -1.800241,-2.4995 -3.900001,-2.4995 z"
         inkscape:connector-curvature="0" />
      <path
         style="display:inline;fill:url(#linearGradient3096);fill-opacity:1.0;stroke:none"
         id="path4160-6"
         d="m 9,0.9998799 c 10.540935,0 45.999945,0.004 45.999945,0.004 L 55,59.00002 c 0,0 -30.666666,0 -46,0 0,-19.3334 0,-38.6665 0,-57.9998201 z"
         inkscape:connector-curvature="0" />
      <path
         inkscape:connector-curvature="0"
         style="color:#000000;clip-rule:nonzero;display:inline;overflow:visible;visibility:visible;opacity:0.2;isolation:auto;mix-blend-mode:normal;color-interpolation:sRGB;color-interpolation-filters:linearRGB;solid-color:#000000;solid-opacity:1;fill:#000000;fill-opacity:1;fill-rule:nonzero;stroke:none;stroke-width:1;stroke-linecap:butt;stroke-linejoin:miter;stroke-miterlimit:4;stroke-dasharray:none;stroke-dashoffset:0;stroke-opacity:1;marker:none;color-rendering:auto;image-rendering:auto;shape-rendering:auto;text-rendering:auto;enable-background:accumulate"
         id="path9217"
         d="m 42,32.999963 -9.92624,12 -10.07376,-12 h 7 v -12 h 6 v 12 z" />
      <path
         style="fill:none;stroke:url(#linearGradient3093);stroke-width:1;stroke-linecap:round;stroke-linejoin:miter;stroke-miterlimit:4;stroke-dasharray:none;stroke-dashoffset:0;stroke-opacity:1"
         id="rect6741-1-8"
         d="M 54.499999,58.50002 H 9.4999998 V 1.4999799 H 54.499999 Z"
         inkscape:connector-curvature="0" />
      <path
         style="display:inline;fill:none;stroke:url(#linearGradient3033);stroke-width:0.9999218;stroke-linecap:butt;stroke-linejoin:round;stroke-miterlimit:4;stroke-dasharray:none;stroke-dashoffset:0;stroke-opacity:1"
         id="path4160-6-1-2"
         d="m 8.4999684,0.4998999 c 10.7700936,0 47.0000286,0.004 47.0000286,0.004 l 4.9e-5,58.9962201 c 0,0 -31.333384,0 -47.0000776,0 0,-19.6668 0,-39.3334 0,-58.9999701 z"
         inkscape:connector-curvature="0" />
      <path
         d="M 42,32 32.07376,44 22,32 h 7 V 20 h 6 v 12 z"
         id="path3288-2-2-1"
         style="color:#000000;clip-rule:nonzero;display:inline;overflow:visible;visibility:visible;opacity:1;isolation:auto;mix-blend-mode:normal;color-interpolation:sRGB;color-interpolation-filters:linearRGB;solid-color:#000000;solid-opacity:1;fill:#ffffff;fill-opacity:1;fill-rule:nonzero;stroke:none;stroke-width:1;stroke-linecap:butt;stroke-linejoin:miter;stroke-miterlimit:4;stroke-dasharray:none;stroke-dashoffset:0;stroke-opacity:1;marker:none;color-rendering:auto;image-rendering:auto;shape-rendering:auto;text-rendering:auto;enable-background:accumulate"
         inkscape:connector-curvature="0" />
    </g>
  </g>
</svg>
